External Loads File
version=1
nRows=93
nColumns=13
Range=5.000000e-03-10 seconds
endheader
time 	forceRightX 	forceRightY 	forceRightZ 	pointRightX 	pointRightY 	pointRightZ 	forceLeftX 	forceLeftY 	forceLeftZ 	pointLeftX 	pointLeftY 	pointLeftZ 		
2.505000 230.715410 1122.021060 -0.000000 0.325221 0.166569 -0.114485 -36.918852 -8.414881 -0.000000 0.254366 0.494824 -0.363666
2.510000 231.174931 1090.025245 -0.000000 0.321918 0.165415 -0.114385 -35.722109 1.598209 -0.000000 0.257726 0.496239 -0.363713
2.515000 230.196608 1051.342195 -0.000000 0.318584 0.164354 -0.114264 -34.289077 11.573747 -0.000000 0.261072 0.497522 -0.363908
2.520000 227.156080 1005.971285 -0.000000 0.315350 0.163428 -0.114105 -32.629382 21.538663 -0.000000 0.264370 0.498770 -0.363973
2.525000 222.003609 953.985667 -0.000000 0.312195 0.162571 -0.113998 -30.794641 31.631147 -0.000000 0.267603 0.499941 -0.364138
2.530000 215.207978 895.565648 -0.000000 0.309089 0.161801 -0.113824 -28.818668 42.078753 -0.000000 0.270947 0.501013 -0.364174
2.535000 206.002947 831.393115 -0.000000 0.306114 0.161310 -0.113658 -26.755279 53.107501 -0.000000 0.274227 0.501929 -0.364250
2.540000 194.837937 762.056514 -0.000000 0.303160 0.160830 -0.113541 -24.598647 64.953024 -0.000000 0.277455 0.502737 -0.364324
2.545000 182.026164 688.380363 -0.000000 0.300308 0.160369 -0.113417 -22.360043 77.738262 -0.000000 0.280801 0.503672 -0.364236
2.550000 167.355049 611.565616 -0.000000 0.297518 0.160070 -0.113289 -20.149667 91.445357 -0.000000 0.284019 0.504373 -0.364353
2.555000 151.600173 532.802275 -0.000000 0.294783 0.159990 -0.113117 -17.988985 106.018107 -0.000000 0.287302 0.504941 -0.364121
2.560000 135.387373 453.532863 -0.000000 0.292044 0.159870 -0.112973 -15.897730 121.367467 -0.000000 0.290722 0.505683 -0.363272
2.565000 118.885625 375.469213 -0.000000 0.289188 0.159836 -0.112844 -14.047113 137.379665 -0.000000 0.293853 0.505227 -0.363441
2.570000 103.029917 300.096478 -0.000000 0.286295 0.159960 -0.112594 -12.398129 153.975565 -0.000000 0.297106 0.505558 -0.363361
2.575000 88.615561 228.786045 -0.000000 0.282783 0.160225 -0.112742 -10.721273 171.072837 -0.000000 0.300387 0.505764 -0.363357
2.580000 75.409922 163.054632 -0.000000 0.279533 0.160561 -0.112568 -9.396700 188.527617 -0.000000 0.303704 0.505748 -0.363295
2.585000 64.117424 103.765838 -0.000000 0.276163 0.161064 -0.112423 -8.361310 206.233079 -0.000000 0.306995 0.506986 -0.363170
2.590000 55.280713 51.361465 -0.000000 0.272520 0.161590 -0.112408 -7.362560 224.107331 -0.000000 0.310151 0.505453 -0.363628
2.595000 49.042830 6.020192 -0.000000 0.268606 0.162459 -0.112362 -6.534511 242.093773 -0.000000 0.313479 0.506374 -0.363597
2.600000 45.403097 -32.445379 -0.000000 0.264486 0.163472 -0.112413 -5.647237 260.201203 -0.000000 0.316876 0.505764 -0.363610
2.605000 43.999134 -64.306847 -0.000000 0.260139 0.164632 -0.112482 -4.486920 278.467042 -0.000000 0.320419 0.503717 -0.363496
2.610000 44.458443 -89.700871 -0.000000 0.255715 0.166083 -0.112588 -3.671939 296.899593 -0.000000 0.323806 0.502837 -0.363551
2.615000 46.099981 -108.860249 -0.000000 0.251289 0.167596 -0.112711 -2.931319 315.468974 -0.000000 0.327270 0.501779 -0.363443
2.620000 48.304016 -121.875179 -0.000000 0.246893 0.169084 -0.112839 -2.511534 334.073469 -0.000000 0.330749 0.501169 -0.363662
2.625000 50.387252 -128.838341 -0.000000 0.242760 0.170570 -0.112921 -2.361098 352.564070 -0.000000 0.334277 0.499861 -0.363190
2.630000 51.852050 -129.848389 -0.000000 0.238697 0.172176 -0.113047 -2.633707 370.783939 -0.000000 0.337587 0.498351 -0.363292
2.635000 52.306510 -125.194326 -0.000000 0.234750 0.173694 -0.113139 -3.276336 388.641443 -0.000000 0.340918 0.496740 -0.363398
2.640000 51.594074 -115.421063 -0.000000 0.230977 0.175200 -0.113347 -4.268516 406.133600 -0.000000 0.344343 0.494940 -0.363184
2.645000 49.829977 -101.341723 -0.000000 0.227332 0.176698 -0.113424 -5.814553 423.309475 -0.000000 0.347661 0.493027 -0.363626
2.650000 47.171784 -84.094283 -0.000000 0.223774 0.178250 -0.113513 -7.701846 440.257603 -0.000000 0.351020 0.491008 -0.363703
2.655000 43.922676 -64.972995 -0.000000 0.220245 0.179952 -0.113581 -9.915436 457.102471 -0.000000 0.354286 0.488836 -0.363831
2.660000 40.372222 -45.320304 -0.000000 0.216731 0.181698 -0.113648 -12.324284 473.981128 -0.000000 0.357585 0.486565 -0.363606
2.665000 36.770240 -26.367243 -0.000000 0.213226 0.183677 -0.113741 -14.785928 490.995546 -0.000000 0.360815 0.484090 -0.363776
2.670000 33.287273 -9.135376 -0.000000 0.209774 0.185930 -0.113818 -17.257734 508.186676 -0.000000 0.364013 0.481528 -0.363915
2.675000 29.971652 5.571192 -0.000000 0.206273 0.188184 -0.113870 -19.736571 525.529756 -0.000000 0.367147 0.478866 -0.364015
2.680000 26.778273 17.112843 -0.000000 0.202866 0.190615 -0.113919 -22.013711 542.933038 -0.000000 0.370324 0.476056 -0.364230
2.685000 23.629635 24.992857 -0.000000 0.199431 0.193165 -0.113973 -24.162005 560.231896 -0.000000 0.373385 0.473145 -0.364887
2.690000 20.449569 28.813857 -0.000000 0.196078 0.195904 -0.113890 -26.370108 577.246745 -0.000000 0.376276 0.470110 -0.364385
2.695000 17.196677 28.260220 -0.000000 0.192780 0.198659 -0.113941 -28.417787 593.847963 -0.000000 0.379314 0.467032 -0.364605
2.700000 13.810439 23.158839 -0.000000 0.189548 0.201573 -0.113838 -30.616339 609.911728 -0.000000 0.382178 0.463787 -0.364598
2.705000 10.263876 13.464955 -0.000000 0.186299 0.204683 -0.113853 -32.227395 625.394683 -0.000000 0.385099 0.460133 -0.364702
2.710000 6.449877 -0.658252 -0.000000 0.183108 0.207945 -0.113804 -34.932518 640.169454 -0.000000 0.387804 0.456982 -0.364931
2.715000 2.304047 -18.932328 -0.000000 0.180018 0.211367 -0.113739 -37.194852 654.328681 -0.000000 0.390604 0.453424 -0.365021
2.720000 -2.335673 -40.869547 -0.000000 0.176776 0.215006 -0.113567 -38.851003 667.967221 -0.000000 0.393447 0.449732 -0.364976
2.725000 -7.581706 -65.817520 -0.000000 0.173743 0.218707 -0.113536 -40.470891 681.205080 -0.000000 0.396144 0.445666 -0.365061
2.730000 -13.443813 -92.998600 -0.000000 0.170840 0.222475 -0.113418 -42.673382 694.196791 -0.000000 0.398707 0.441805 -0.365163
2.735000 -20.126412 -121.509586 -0.000000 0.168006 0.226433 -0.113400 -44.356914 707.211474 -0.000000 0.401240 0.437757 -0.365241
2.740000 -27.534669 -150.443411 -0.000000 0.165305 0.230488 -0.113431 -46.687286 720.360167 -0.000000 0.403554 0.433965 -0.365361
2.745000 -36.111424 -178.790405 -0.000000 0.162947 0.234501 -0.113231 -47.943040 733.869437 -0.000000 0.405913 0.429415 -0.365477
2.750000 -45.790350 -205.659349 -0.000000 0.160612 0.238566 -0.113134 -48.912263 747.696455 -0.000000 0.408092 0.424830 -0.365597
2.755000 -56.429316 -230.272837 -0.000000 0.158485 0.242611 -0.113027 -49.912495 761.727258 -0.000000 0.410270 0.420346 -0.365698
2.760000 -67.143698 -252.219758 -0.000000 0.156669 0.246612 -0.112968 -53.042719 775.669216 -0.000000 0.412287 0.416777 -0.365766
2.765000 -78.943248 -270.834234 -0.000000 0.154963 0.250536 -0.112775 -54.119955 789.624845 -0.000000 0.414159 0.412209 -0.365918
2.770000 -91.073084 -286.115295 -0.000000 0.153390 0.254569 -0.112642 -54.431417 803.332692 -0.000000 0.415985 0.407526 -0.365921
2.775000 -103.006284 -298.184656 -0.000000 0.151897 0.258695 -0.112422 -54.154604 816.639694 -0.000000 0.417587 0.402714 -0.366006
2.780000 -114.447704 -307.162966 -0.000000 0.150431 0.262922 -0.112358 -52.692919 829.514484 -0.000000 0.419321 0.397729 -0.365942
2.785000 -124.604718 -313.351210 -0.000000 0.148925 0.267331 -0.112432 -50.833298 841.914226 -0.000000 0.420717 0.392756 -0.366034
2.790000 -133.383217 -316.748166 -0.000000 0.147502 0.272018 -0.112473 -47.706316 853.946022 -0.000000 0.422195 0.387678 -0.366108
2.795000 -140.064874 -317.583039 -0.000000 0.146177 0.276748 -0.112546 -44.496983 865.594637 -0.000000 0.423575 0.382626 -0.366002
2.800000 -144.590620 -315.864859 -0.000000 0.144944 0.281417 -0.112611 -40.960574 876.920028 -0.000000 0.424886 0.377428 -0.365916
2.805000 -147.266403 -311.528815 -0.000000 0.143746 0.286495 -0.112747 -36.109544 888.015215 -0.000000 0.426031 0.372210 -0.365932
2.810000 -147.668181 -304.980110 -0.000000 0.142658 0.291506 -0.112891 -31.361911 898.872973 -0.000000 0.426978 0.367012 -0.366107
2.815000 -146.153140 -296.395426 -0.000000 0.141707 0.296559 -0.113080 -26.386139 909.561706 -0.000000 0.427777 0.361838 -0.365905
2.820000 -143.339348 -285.936467 -0.000000 0.140952 0.301784 -0.113240 -20.311671 920.159734 -0.000000 0.428563 0.356533 -0.365849
2.825000 -139.642559 -273.949717 -0.000000 0.140221 0.306957 -0.113440 -12.885130 930.746731 -0.000000 0.429216 0.350770 -0.365776
2.830000 -134.827468 -261.141357 -0.000000 0.139635 0.312393 -0.113651 -5.975903 941.400931 -0.000000 0.429903 0.345413 -0.365674
2.835000 -129.307644 -247.852775 -0.000000 0.139249 0.317842 -0.113787 0.933702 952.209251 -0.000000 0.430290 0.339973 -0.365582
2.840000 -123.102174 -234.560447 -0.000000 0.138975 0.323087 -0.113930 7.273084 963.156662 -0.000000 0.430426 0.334454 -0.365611
2.845000 -116.709986 -221.409761 -0.000000 0.138847 0.328661 -0.114058 14.536841 974.141619 -0.000000 0.430531 0.328967 -0.365488
2.850000 -110.024026 -208.766596 -0.000000 0.138938 0.334124 -0.114121 21.663670 985.053015 -0.000000 0.430511 0.323405 -0.365468
2.855000 -103.322164 -196.692894 -0.000000 0.139193 0.339706 -0.114186 29.075439 995.756762 -0.000000 0.430635 0.317835 -0.365163
2.860000 -96.494401 -185.390110 -0.000000 0.139570 0.345117 -0.114255 35.279231 1006.169902 -0.000000 0.430282 0.312389 -0.364917
2.865000 -89.940800 -174.811200 -0.000000 0.140254 0.350569 -0.114191 41.421989 1016.163077 -0.000000 0.429853 0.306870 -0.364656
2.870000 -83.725432 -165.175291 -0.000000 0.141032 0.355973 -0.114208 46.848270 1025.713985 -0.000000 0.429237 0.301306 -0.364466
2.875000 -78.039928 -156.714053 -0.000000 0.142015 0.361414 -0.114144 51.351603 1034.833937 -0.000000 0.428468 0.295807 -0.364324
2.880000 -73.219949 -149.582464 -0.000000 0.143144 0.366954 -0.114128 55.564183 1043.525732 -0.000000 0.427577 0.290208 -0.364191
2.885000 -68.971512 -144.145836 -0.000000 0.144651 0.372001 -0.114058 55.728142 1052.064674 -0.000000 0.426517 0.285102 -0.364072
2.890000 -66.547052 -139.885275 -0.000000 0.146574 0.377853 -0.113866 59.432719 1060.184341 -0.000000 0.425253 0.279604 -0.363924
2.895000 -65.264846 -137.074141 -0.000000 0.148369 0.383231 -0.113841 60.599317 1068.458198 -0.000000 0.423839 0.274081 -0.363853
2.900000 -65.304353 -135.443444 -0.000000 0.150395 0.388287 -0.113905 59.799648 1077.214297 -0.000000 0.422294 0.268665 -0.363660
2.905000 -66.975898 -134.559621 -0.000000 0.152665 0.393580 -0.113939 59.584348 1086.730399 -0.000000 0.420470 0.263259 -0.363598
2.910000 -70.099627 -134.169647 -0.000000 0.155355 0.398888 -0.114020 59.575376 1097.479970 -0.000000 0.418524 0.257822 -0.363490
2.915000 -74.292974 -134.142299 -0.000000 0.158092 0.404076 -0.113993 58.484891 1109.998419 -0.000000 0.416393 0.252519 -0.363369
2.920000 -79.403495 -134.292460 -0.000000 0.160999 0.409169 -0.114067 57.379137 1124.675376 -0.000000 0.414042 0.247213 -0.363194
2.925000 -85.215072 -134.542799 -0.000000 0.164304 0.414262 -0.114163 56.972423 1141.821702 -0.000000 0.411548 0.241988 -0.363068
2.930000 -91.412554 -134.951313 -0.000000 0.167554 0.419322 -0.114253 57.032723 1161.612526 -0.000000 0.408830 0.236776 -0.362927
2.935000 -97.854015 -135.525149 -0.000000 0.171037 0.424333 -0.114175 58.496654 1183.976189 -0.000000 0.405867 0.231590 -0.362802
2.940000 -104.224770 -136.428600 -0.000000 0.174583 0.429203 -0.114280 60.376594 1208.780221 -0.000000 0.402748 0.226586 -0.362639
2.945000 -110.647466 -137.488132 -0.000000 0.178537 0.434145 -0.114248 65.152829 1235.574710 -0.000000 0.399461 0.221555 -0.362432
2.950000 -116.865549 -138.745418 -0.000000 0.182733 0.438896 -0.114235 71.799087 1263.944405 -0.000000 0.395908 0.216651 -0.362326
2.955000 -122.579518 -140.203597 -0.000000 0.186710 0.443615 -0.114372 78.991688 1293.375669 -0.000000 0.392261 0.211929 -0.362159
2.960000 -127.895822 -141.442814 -0.000000 0.191104 0.448145 -0.114464 89.460340 1322.990717 -0.000000 0.388307 0.207195 -0.362060
2.965000 -132.372804 -142.510676 -0.000000 0.195433 0.452684 -0.114592 100.959125 1352.095455 -0.000000 0.384313 0.202614 -0.362053
